<svg width="357" height="150" viewBox="0 0 357 150" fill="none" xmlns="http://www.w3.org/2000/svg">
<path fill-rule="evenodd" clip-rule="evenodd" d="M324.907 80.3016C343.599 73.7386 357 55.9343 357 35C357 8.49033 335.51 -13 309 -13C282.49 -13 261 8.49033 261 35C261 46.5843 265.104 57.2101 271.937 65.5031C270.178 69.0224 269.14 72.9639 269.013 77.1348C263.92 74.4927 258.134 73 252 73C238.022 73 225.854 80.7513 219.561 92.1899C214.758 88.318 208.65 86 202 86C190.321 86 180.312 93.1503 176.112 103.312C170.534 99.9403 163.994 98 157 98C143.953 98 132.484 104.753 125.896 114.954C121.507 112.438 116.421 111 111 111C100.517 111 91.29 116.377 85.926 124.523C76.7365 114.955 63.8137 109 49.5 109C21.6096 109 -1 131.61 -1 159.5C-1 187.39 21.6096 210 49.5 210C74.2892 210 94.9067 192.139 99.1852 168.584C102.811 170.139 106.805 171 111 171C119.216 171 126.66 167.698 132.078 162.348C138.654 168.344 147.4 172 157 172C175.494 172 190.819 158.432 193.563 140.706C196.225 141.547 199.06 142 202 142C210.259 142 217.683 138.424 222.808 132.736C229.579 141.417 240.137 147 252 147C260.029 147 267.46 144.443 273.524 140.098C278.635 145.576 285.918 149 294 149C309.464 149 322 136.464 322 121C322 113.034 318.673 105.844 313.333 100.745C319.814 96.0831 324.222 88.7188 324.907 80.3016Z" fill="#CDF3FF" fill-opacity="0.6"/>
</svg>
