<svg width="336" height="147" viewBox="0 0 336 147" fill="none" xmlns="http://www.w3.org/2000/svg">
<path fill-rule="evenodd" clip-rule="evenodd" d="M335.767 95.3748C358.583 91.6624 376 71.8651 376 48C376 21.4903 354.51 0 328 0C301.49 0 280 21.4903 280 48C280 59.1061 283.772 69.3312 290.104 77.4642C283.93 82.6003 280 90.3412 280 99C280 99.9641 280.049 100.917 280.144 101.856C273.386 94.564 263.726 90 253 90C239.022 90 226.854 97.7513 220.561 109.19C215.758 105.318 209.65 103 203 103C188.782 103 177.039 113.597 175.239 127.324C168.47 118.608 157.89 113 146 113C134.971 113 125.069 117.826 118.29 125.481C113.403 122.028 107.438 120 101 120C90.7227 120 81.6524 125.168 76.2461 133.047C68.7072 128.57 59.9038 126 50.5 126C22.6096 126 0 148.61 0 176.5C0 204.39 22.6096 227 50.5 227C77.214 227 99.0833 206.258 100.881 180C100.92 180 100.96 180 101 180C107.438 180 113.403 177.972 118.29 174.519C125.069 182.174 134.971 187 146 187C166.237 187 182.68 170.753 182.995 150.591C188.078 155.78 195.163 159 203 159C211.259 159 218.683 155.424 223.808 149.736C230.579 158.417 241.137 164 253 164C261.029 164 268.46 161.443 274.524 157.098C279.635 162.576 286.918 166 295 166C310.464 166 323 153.464 323 138C323 133.112 321.747 128.516 319.546 124.516C329.25 120.119 336 110.348 336 99C336 97.7715 335.921 96.5615 335.767 95.3748Z" fill="#CDF3FF"/>
</svg>
